<?xml version="1.0" standalone="no"?>
<svg xmlns:xlink="http://www.w3.org/1999/xlink" id="wave" style="transform:rotate(180deg); transition: 0.3s" viewBox="0 0 1440 340" version="1.1" xmlns="http://www.w3.org/2000/svg"><defs><linearGradient id="sw-gradient-0" x1="0" x2="0" y1="1" y2="0"><stop stop-color="rgba(117.556, 164.384, 151.533, 1)" offset="0%"/><stop stop-color="rgba(75.589, 75.589, 75.589, 1)" offset="100%"/></linearGradient></defs><path style="transform:translate(0, 0px); opacity:1" fill="url(#sw-gradient-0)" d="M0,68L80,102C160,136,320,204,480,192.7C640,181,800,91,960,56.7C1120,23,1280,45,1440,51C1600,57,1760,45,1920,73.7C2080,102,2240,170,2400,215.3C2560,261,2720,283,2880,249.3C3040,215,3200,125,3360,90.7C3520,57,3680,79,3840,79.3C4000,79,4160,57,4320,68C4480,79,4640,125,4800,124.7C4960,125,5120,79,5280,102C5440,125,5600,215,5760,215.3C5920,215,6080,125,6240,102C6400,79,6560,125,6720,130.3C6880,136,7040,102,7200,79.3C7360,57,7520,45,7680,62.3C7840,79,8000,125,8160,141.7C8320,159,8480,147,8640,170C8800,193,8960,249,9120,260.7C9280,272,9440,238,9600,238C9760,238,9920,272,10080,289C10240,306,10400,306,10560,255C10720,204,10880,102,11040,102C11200,102,11360,204,11440,255L11520,306L11520,340L11440,340C11360,340,11200,340,11040,340C10880,340,10720,340,10560,340C10400,340,10240,340,10080,340C9920,340,9760,340,9600,340C9440,340,9280,340,9120,340C8960,340,8800,340,8640,340C8480,340,8320,340,8160,340C8000,340,7840,340,7680,340C7520,340,7360,340,7200,340C7040,340,6880,340,6720,340C6560,340,6400,340,6240,340C6080,340,5920,340,5760,340C5600,340,5440,340,5280,340C5120,340,4960,340,4800,340C4640,340,4480,340,4320,340C4160,340,4000,340,3840,340C3680,340,3520,340,3360,340C3200,340,3040,340,2880,340C2720,340,2560,340,2400,340C2240,340,2080,340,1920,340C1760,340,1600,340,1440,340C1280,340,1120,340,960,340C800,340,640,340,480,340C320,340,160,340,80,340L0,340Z"/><defs><linearGradient id="sw-gradient-1" x1="0" x2="0" y1="1" y2="0"><stop stop-color="rgba(102.911, 94.356, 91.609, 1)" offset="0%"/><stop stop-color="rgba(162.107, 134.324, 72.907, 1)" offset="100%"/></linearGradient></defs><path style="transform:translate(0, 50px); opacity:0.9" fill="url(#sw-gradient-1)" d="M0,272L80,255C160,238,320,204,480,209.7C640,215,800,261,960,255C1120,249,1280,193,1440,170C1600,147,1760,159,1920,164.3C2080,170,2240,170,2400,192.7C2560,215,2720,261,2880,260.7C3040,261,3200,215,3360,175.7C3520,136,3680,102,3840,119C4000,136,4160,204,4320,226.7C4480,249,4640,227,4800,192.7C4960,159,5120,113,5280,130.3C5440,147,5600,227,5760,221C5920,215,6080,125,6240,113.3C6400,102,6560,170,6720,170C6880,170,7040,102,7200,79.3C7360,57,7520,79,7680,102C7840,125,8000,147,8160,181.3C8320,215,8480,261,8640,238C8800,215,8960,125,9120,119C9280,113,9440,193,9600,192.7C9760,193,9920,113,10080,119C10240,125,10400,215,10560,232.3C10720,249,10880,193,11040,175.7C11200,159,11360,181,11440,192.7L11520,204L11520,340L11440,340C11360,340,11200,340,11040,340C10880,340,10720,340,10560,340C10400,340,10240,340,10080,340C9920,340,9760,340,9600,340C9440,340,9280,340,9120,340C8960,340,8800,340,8640,340C8480,340,8320,340,8160,340C8000,340,7840,340,7680,340C7520,340,7360,340,7200,340C7040,340,6880,340,6720,340C6560,340,6400,340,6240,340C6080,340,5920,340,5760,340C5600,340,5440,340,5280,340C5120,340,4960,340,4800,340C4640,340,4480,340,4320,340C4160,340,4000,340,3840,340C3680,340,3520,340,3360,340C3200,340,3040,340,2880,340C2720,340,2560,340,2400,340C2240,340,2080,340,1920,340C1760,340,1600,340,1440,340C1280,340,1120,340,960,340C800,340,640,340,480,340C320,340,160,340,80,340L0,340Z"/><defs><linearGradient id="sw-gradient-2" x1="0" x2="0" y1="1" y2="0"><stop stop-color="rgba(157.554, 156.577, 156.264, 1)" offset="0%"/><stop stop-color="rgba(225.857, 222.898, 216.356, 1)" offset="100%"/></linearGradient></defs><path style="transform:translate(0, 100px); opacity:0.8" fill="url(#sw-gradient-2)" d="M0,34L80,28.3C160,23,320,11,480,39.7C640,68,800,136,960,147.3C1120,159,1280,113,1440,79.3C1600,45,1760,23,1920,17C2080,11,2240,23,2400,73.7C2560,125,2720,215,2880,209.7C3040,204,3200,102,3360,62.3C3520,23,3680,45,3840,96.3C4000,147,4160,227,4320,221C4480,215,4640,125,4800,79.3C4960,34,5120,34,5280,68C5440,102,5600,170,5760,192.7C5920,215,6080,193,6240,204C6400,215,6560,261,6720,283.3C6880,306,7040,306,7200,294.7C7360,283,7520,261,7680,243.7C7840,227,8000,215,8160,198.3C8320,181,8480,159,8640,141.7C8800,125,8960,113,9120,119C9280,125,9440,147,9600,170C9760,193,9920,215,10080,187C10240,159,10400,79,10560,73.7C10720,68,10880,136,11040,175.7C11200,215,11360,227,11440,232.3L11520,238L11520,340L11440,340C11360,340,11200,340,11040,340C10880,340,10720,340,10560,340C10400,340,10240,340,10080,340C9920,340,9760,340,9600,340C9440,340,9280,340,9120,340C8960,340,8800,340,8640,340C8480,340,8320,340,8160,340C8000,340,7840,340,7680,340C7520,340,7360,340,7200,340C7040,340,6880,340,6720,340C6560,340,6400,340,6240,340C6080,340,5920,340,5760,340C5600,340,5440,340,5280,340C5120,340,4960,340,4800,340C4640,340,4480,340,4320,340C4160,340,4000,340,3840,340C3680,340,3520,340,3360,340C3200,340,3040,340,2880,340C2720,340,2560,340,2400,340C2240,340,2080,340,1920,340C1760,340,1600,340,1440,340C1280,340,1120,340,960,340C800,340,640,340,480,340C320,340,160,340,80,340L0,340Z"/><defs><linearGradient id="sw-gradient-3" x1="0" x2="0" y1="1" y2="0"><stop stop-color="rgba(65.156, 175.768, 77.96, 1)" offset="0%"/><stop stop-color="rgba(200.813, 186.526, 154.947, 1)" offset="100%"/></linearGradient></defs><path style="transform:translate(0, 150px); opacity:0.7" fill="url(#sw-gradient-3)" d="M0,238L80,198.3C160,159,320,79,480,68C640,57,800,113,960,130.3C1120,147,1280,125,1440,96.3C1600,68,1760,34,1920,39.7C2080,45,2240,91,2400,119C2560,147,2720,159,2880,164.3C3040,170,3200,170,3360,141.7C3520,113,3680,57,3840,51C4000,45,4160,91,4320,130.3C4480,170,4640,204,4800,221C4960,238,5120,238,5280,215.3C5440,193,5600,147,5760,130.3C5920,113,6080,125,6240,141.7C6400,159,6560,181,6720,187C6880,193,7040,181,7200,153C7360,125,7520,79,7680,51C7840,23,8000,11,8160,28.3C8320,45,8480,91,8640,96.3C8800,102,8960,68,9120,68C9280,68,9440,102,9600,107.7C9760,113,9920,91,10080,68C10240,45,10400,23,10560,56.7C10720,91,10880,181,11040,198.3C11200,215,11360,159,11440,130.3L11520,102L11520,340L11440,340C11360,340,11200,340,11040,340C10880,340,10720,340,10560,340C10400,340,10240,340,10080,340C9920,340,9760,340,9600,340C9440,340,9280,340,9120,340C8960,340,8800,340,8640,340C8480,340,8320,340,8160,340C8000,340,7840,340,7680,340C7520,340,7360,340,7200,340C7040,340,6880,340,6720,340C6560,340,6400,340,6240,340C6080,340,5920,340,5760,340C5600,340,5440,340,5280,340C5120,340,4960,340,4800,340C4640,340,4480,340,4320,340C4160,340,4000,340,3840,340C3680,340,3520,340,3360,340C3200,340,3040,340,2880,340C2720,340,2560,340,2400,340C2240,340,2080,340,1920,340C1760,340,1600,340,1440,340C1280,340,1120,340,960,340C800,340,640,340,480,340C320,340,160,340,80,340L0,340Z"/></svg>